<svg width="16" height="16" viewBox="0 0 16 16" fill="none" >
<g opacity="0.5">
<path d="M4.5 2C3.83696 2 3.20107 2.26339 2.73223 2.73223C2.26339 3.20107 2 3.83696 2 4.5V11.5C2 12.163 2.26339 12.7989 2.73223 13.2678C3.20107 13.7366 3.83696 14 4.5 14H11.5C12.163 14 12.7989 13.7366 13.2678 13.2678C13.7366 12.7989 14 12.163 14 11.5V4.5C14 3.83696 13.7366 3.20107 13.2678 2.73223C12.7989 2.26339 12.163 2 11.5 2H4.5ZM5 5H11C11.1326 5 11.2598 5.05268 11.3536 5.14645C11.4473 5.24021 11.5 5.36739 11.5 5.5C11.5 5.63261 11.4473 5.75979 11.3536 5.85355C11.2598 5.94732 11.1326 6 11 6H5C4.86739 6 4.74021 5.94732 4.64645 5.85355C4.55268 5.75979 4.5 5.63261 4.5 5.5C4.5 5.36739 4.55268 5.24021 4.64645 5.14645C4.74021 5.05268 4.86739 5 5 5Z" fill="black"/>
</g>
</svg>
